<mxfile host="app.diagrams.net" modified="2023-04-18T03:36:38.432Z" agent="Mozilla/5.0 (Windows NT 10.0; Win64; x64; rv:109.0) Gecko/20100101 Firefox/112.0" etag="PQk8mDeA5zb-67VnNT0d" version="21.1.8" type="github">
  <diagram name="Page-1" id="ks7rBKEob9_mig7iz6D3">
    <mxGraphModel dx="1050" dy="605" grid="1" gridSize="10" guides="1" tooltips="1" connect="1" arrows="1" fold="1" page="1" pageScale="1" pageWidth="827" pageHeight="1169" math="0" shadow="0">
      <root>
        <mxCell id="0" />
        <mxCell id="1" parent="0" />
        <mxCell id="LrblfXi2ngcMLB4443K9-18" value="&lt;b&gt;PREPROCESSING DATA&lt;/b&gt;" style="text;html=1;align=center;verticalAlign=middle;resizable=0;points=[];autosize=1;strokeColor=none;fillColor=none;" vertex="1" parent="1">
          <mxGeometry x="550" y="625" width="160" height="30" as="geometry" />
        </mxCell>
        <mxCell id="LrblfXi2ngcMLB4443K9-8" style="edgeStyle=orthogonalEdgeStyle;rounded=0;orthogonalLoop=1;jettySize=auto;html=1;exitX=0.98;exitY=0.5;exitDx=0;exitDy=0;exitPerimeter=0;entryX=0;entryY=0.75;entryDx=0;entryDy=0;" edge="1" parent="1" source="LrblfXi2ngcMLB4443K9-1" target="LrblfXi2ngcMLB4443K9-4">
          <mxGeometry relative="1" as="geometry" />
        </mxCell>
        <mxCell id="LrblfXi2ngcMLB4443K9-1" value="" style="shape=mxgraph.cisco.people.standing_man;html=1;pointerEvents=1;dashed=0;fillColor=#036897;strokeColor=#ffffff;strokeWidth=2;verticalLabelPosition=bottom;verticalAlign=top;align=center;outlineConnect=0;" vertex="1" parent="1">
          <mxGeometry x="210" y="188" width="42" height="112" as="geometry" />
        </mxCell>
        <mxCell id="LrblfXi2ngcMLB4443K9-2" value="&lt;b&gt;&lt;font style=&quot;font-size: 14px;&quot;&gt;USER&lt;/font&gt;&lt;/b&gt;" style="text;html=1;align=center;verticalAlign=middle;resizable=0;points=[];autosize=1;strokeColor=none;fillColor=none;" vertex="1" parent="1">
          <mxGeometry x="201" y="310" width="60" height="30" as="geometry" />
        </mxCell>
        <mxCell id="LrblfXi2ngcMLB4443K9-10" style="edgeStyle=orthogonalEdgeStyle;rounded=0;orthogonalLoop=1;jettySize=auto;html=1;exitX=1;exitY=0.5;exitDx=0;exitDy=0;entryX=0;entryY=0.5;entryDx=0;entryDy=0;" edge="1" parent="1" source="LrblfXi2ngcMLB4443K9-4" target="LrblfXi2ngcMLB4443K9-9">
          <mxGeometry relative="1" as="geometry" />
        </mxCell>
        <mxCell id="LrblfXi2ngcMLB4443K9-4" value="" style="shape=image;html=1;verticalAlign=top;verticalLabelPosition=bottom;labelBackgroundColor=#ffffff;imageAspect=0;aspect=fixed;image=https://cdn0.iconfinder.com/data/icons/business-startup-10/50/38-128.png" vertex="1" parent="1">
          <mxGeometry x="380" y="230" width="80" height="80" as="geometry" />
        </mxCell>
        <mxCell id="LrblfXi2ngcMLB4443K9-14" style="edgeStyle=orthogonalEdgeStyle;rounded=0;orthogonalLoop=1;jettySize=auto;html=1;" edge="1" parent="1" source="LrblfXi2ngcMLB4443K9-5" target="LrblfXi2ngcMLB4443K9-12">
          <mxGeometry relative="1" as="geometry">
            <mxPoint x="414" y="450" as="targetPoint" />
            <Array as="points">
              <mxPoint x="410" y="450" />
            </Array>
          </mxGeometry>
        </mxCell>
        <mxCell id="LrblfXi2ngcMLB4443K9-5" value="&lt;b&gt;INPUT DATA&lt;br&gt;&lt;/b&gt;" style="text;html=1;align=center;verticalAlign=middle;resizable=0;points=[];autosize=1;strokeColor=none;fillColor=none;" vertex="1" parent="1">
          <mxGeometry x="369" y="310" width="90" height="30" as="geometry" />
        </mxCell>
        <mxCell id="LrblfXi2ngcMLB4443K9-9" value="" style="shape=image;html=1;verticalAlign=top;verticalLabelPosition=bottom;labelBackgroundColor=#ffffff;imageAspect=0;aspect=fixed;image=https://cdn4.iconfinder.com/data/icons/essential-app-2/16/trash-can-bin-recycle-128.png" vertex="1" parent="1">
          <mxGeometry x="580" y="235" width="70" height="70" as="geometry" />
        </mxCell>
        <mxCell id="LrblfXi2ngcMLB4443K9-16" style="edgeStyle=orthogonalEdgeStyle;rounded=0;orthogonalLoop=1;jettySize=auto;html=1;" edge="1" parent="1" source="LrblfXi2ngcMLB4443K9-11">
          <mxGeometry relative="1" as="geometry">
            <mxPoint x="650" y="600" as="targetPoint" />
            <Array as="points">
              <mxPoint x="720" y="325" />
              <mxPoint x="720" y="600" />
            </Array>
          </mxGeometry>
        </mxCell>
        <mxCell id="LrblfXi2ngcMLB4443K9-11" value="&lt;b&gt;OLD DATA&lt;br&gt;&lt;/b&gt;" style="text;html=1;align=center;verticalAlign=middle;resizable=0;points=[];autosize=1;strokeColor=none;fillColor=none;" vertex="1" parent="1">
          <mxGeometry x="580" y="310" width="80" height="30" as="geometry" />
        </mxCell>
        <mxCell id="LrblfXi2ngcMLB4443K9-15" style="edgeStyle=orthogonalEdgeStyle;rounded=0;orthogonalLoop=1;jettySize=auto;html=1;entryX=0.6;entryY=1.167;entryDx=0;entryDy=0;entryPerimeter=0;" edge="1" parent="1" source="LrblfXi2ngcMLB4443K9-12" target="LrblfXi2ngcMLB4443K9-11">
          <mxGeometry relative="1" as="geometry" />
        </mxCell>
        <mxCell id="LrblfXi2ngcMLB4443K9-12" value="" style="image;points=[];aspect=fixed;html=1;align=center;shadow=0;dashed=0;image=img/lib/allied_telesis/storage/Datacenter_Server_Half_Rack_ToR.svg;" vertex="1" parent="1">
          <mxGeometry x="480" y="380" width="88.2" height="114.6" as="geometry" />
        </mxCell>
        <mxCell id="LrblfXi2ngcMLB4443K9-13" value="&lt;b&gt;SERVER&lt;/b&gt;" style="text;html=1;align=center;verticalAlign=middle;resizable=0;points=[];autosize=1;strokeColor=none;fillColor=none;" vertex="1" parent="1">
          <mxGeometry x="489.1" y="494.6" width="70" height="30" as="geometry" />
        </mxCell>
        <mxCell id="LrblfXi2ngcMLB4443K9-22" style="edgeStyle=orthogonalEdgeStyle;rounded=0;orthogonalLoop=1;jettySize=auto;html=1;" edge="1" parent="1" source="LrblfXi2ngcMLB4443K9-17">
          <mxGeometry relative="1" as="geometry">
            <mxPoint x="450" y="585" as="targetPoint" />
          </mxGeometry>
        </mxCell>
        <mxCell id="LrblfXi2ngcMLB4443K9-17" value="" style="verticalLabelPosition=bottom;html=1;verticalAlign=top;align=center;strokeColor=none;fillColor=#00BEF2;shape=mxgraph.azure.sql_datasync;" vertex="1" parent="1">
          <mxGeometry x="590.5" y="545" width="59.5" height="80" as="geometry" />
        </mxCell>
        <mxCell id="LrblfXi2ngcMLB4443K9-24" style="edgeStyle=orthogonalEdgeStyle;rounded=0;orthogonalLoop=1;jettySize=auto;html=1;" edge="1" parent="1" source="LrblfXi2ngcMLB4443K9-20" target="LrblfXi2ngcMLB4443K9-23">
          <mxGeometry relative="1" as="geometry" />
        </mxCell>
        <mxCell id="LrblfXi2ngcMLB4443K9-20" value="" style="shape=image;html=1;verticalAlign=top;verticalLabelPosition=bottom;labelBackgroundColor=#ffffff;imageAspect=0;aspect=fixed;image=https://cdn2.iconfinder.com/data/icons/seo-web-1-filled-outline/64/algorithm-scheme-workflow-128.png" vertex="1" parent="1">
          <mxGeometry x="350" y="545" width="90" height="90" as="geometry" />
        </mxCell>
        <mxCell id="LrblfXi2ngcMLB4443K9-21" value="&lt;div&gt;&lt;b&gt;COMPARING WITH DIFFERENT&lt;/b&gt;&lt;/div&gt;&lt;div&gt;&lt;b&gt;ALGORITHM&lt;/b&gt;&lt;br&gt;&lt;/div&gt;" style="text;html=1;align=center;verticalAlign=middle;resizable=0;points=[];autosize=1;strokeColor=none;fillColor=none;" vertex="1" parent="1">
          <mxGeometry x="295" y="640" width="200" height="40" as="geometry" />
        </mxCell>
        <mxCell id="LrblfXi2ngcMLB4443K9-29" style="edgeStyle=orthogonalEdgeStyle;rounded=0;orthogonalLoop=1;jettySize=auto;html=1;exitX=0.5;exitY=0;exitDx=0;exitDy=0;" edge="1" parent="1" source="LrblfXi2ngcMLB4443K9-23">
          <mxGeometry relative="1" as="geometry">
            <mxPoint x="192" y="500" as="targetPoint" />
          </mxGeometry>
        </mxCell>
        <mxCell id="LrblfXi2ngcMLB4443K9-23" value="" style="shape=image;html=1;verticalAlign=top;verticalLabelPosition=bottom;labelBackgroundColor=#ffffff;imageAspect=0;aspect=fixed;image=https://cdn1.iconfinder.com/data/icons/icons-for-a-site-1/64/advantage_accuracy-128.png" vertex="1" parent="1">
          <mxGeometry x="150" y="548" width="84" height="84" as="geometry" />
        </mxCell>
        <mxCell id="LrblfXi2ngcMLB4443K9-25" value="&lt;b&gt;ACCURACY SELECTION&lt;/b&gt;" style="text;html=1;align=center;verticalAlign=middle;resizable=0;points=[];autosize=1;strokeColor=none;fillColor=none;" vertex="1" parent="1">
          <mxGeometry x="120" y="635" width="160" height="30" as="geometry" />
        </mxCell>
        <mxCell id="LrblfXi2ngcMLB4443K9-26" value="" style="image;aspect=fixed;html=1;points=[];align=center;fontSize=12;image=img/lib/azure2/management_governance/User_Privacy.svg;" vertex="1" parent="1">
          <mxGeometry x="160" y="390" width="64" height="68" as="geometry" />
        </mxCell>
        <mxCell id="LrblfXi2ngcMLB4443K9-28" value="&lt;div&gt;&lt;b&gt;MITINGATE CYBER &lt;br&gt;&lt;/b&gt;&lt;/div&gt;&lt;div&gt;&lt;b&gt;SECURITY RISK&lt;/b&gt;&lt;/div&gt;" style="text;html=1;align=center;verticalAlign=middle;resizable=0;points=[];autosize=1;strokeColor=none;fillColor=none;" vertex="1" parent="1">
          <mxGeometry x="127" y="454.6" width="130" height="40" as="geometry" />
        </mxCell>
      </root>
    </mxGraphModel>
  </diagram>
</mxfile>
